<?xml version="1.0" encoding="UTF-8" standalone="no"?>
<svg
   width="16"
   height="16"
   version="1.1"
   id="svg7"
   sodipodi:docname="editConfig.svg"
   inkscape:version="1.2.2 (b0a8486541, 2022-12-01)"
   xmlns:inkscape="http://www.inkscape.org/namespaces/inkscape"
   xmlns:sodipodi="http://sodipodi.sourceforge.net/DTD/sodipodi-0.dtd"
   xmlns="http://www.w3.org/2000/svg"
   xmlns:svg="http://www.w3.org/2000/svg">
  <defs
     id="defs11" />
  <sodipodi:namedview
     id="namedview9"
     pagecolor="#ffffff"
     bordercolor="#000000"
     borderopacity="0.25"
     inkscape:showpageshadow="2"
     inkscape:pageopacity="0.0"
     inkscape:pagecheckerboard="0"
     inkscape:deskcolor="#d1d1d1"
     showgrid="false"
     inkscape:zoom="22.627417"
     inkscape:cx="2.2539029"
     inkscape:cy="4.2205436"
     inkscape:window-width="1920"
     inkscape:window-height="1019"
     inkscape:window-x="1920"
     inkscape:window-y="31"
     inkscape:window-maximized="1"
     inkscape:current-layer="svg7" />
  <style
     type="text/css"
     id="style2">.icon-canvas-transparent{opacity:0;fill:#2d2d30;} .icon-vs-out{fill:#2d2d30;} .icon-vs-bg{fill:#c5c5c5;}</style>
  <path
     class="icon-vs-out"
     d="M16 4.28l-11.673 11.72h-4.327v-4.406l11.477-11.594h.308l4.215 4.237v.043z"
     id="outline"
     style="display: none;" />
  <path
     class="icon-canvas-transparent"
     d="M 15.949373,15.948021 H 0.05062735 V 0.05197943 H 15.949373 Z"
     id="canvas"
     style="stroke-width:0.993587" />
  <path
     class="icon-canvas-transparent"
     d="M 15.949373,15.948021 H 0.05062735 V 0.05197943 H 15.949373 Z"
     id="path7518"
     style="stroke-width:0.993587" />
  <g
     id="SVGRepo_bgCarrier"
     stroke-width="0"
     transform="translate(-30.375,-8.9375)" />
  <g
     id="SVGRepo_tracerCarrier"
     stroke-linecap="round"
     stroke-linejoin="round"
     transform="translate(-30.375,-8.9375)" />
  <path
     id="Shape"
     d="M 2.2912696,14.244012 A 0.53599613,0.53599613 0 0 1 1.7559877,13.708729 v -2.98402 A 0.53885098,0.53885098 0 0 1 1.9130044,10.346442 L 9.9358166,2.3250566 a 1.9412909,1.9412909 0 0 1 2.7463564,0 l 0.992771,0.9927705 a 1.9412909,1.9412909 0 0 1 0,2.7463557 L 5.6542706,14.086996 a 0.53314129,0.53314129 0 0 1 -0.3789799,0.157016 z m 0.5352833,-3.298053 v 2.227488 H 5.0533276 L 10.698774,7.5280018 8.4719973,5.301227 Z m 8.6294661,-4.1744897 1.463819,-1.463819 a 0.87286721,0.87286721 0 0 0 0,-1.232577 L 11.925641,3.0801617 a 0.8721535,0.8721535 0 0 0 -1.232577,0 L 9.2285305,4.5446945 Z"
     fill="#141124"
     style="fill:#c5c5c5;fill-opacity:1;stroke-width:0.71371" />
</svg>
