<?xml version="1.0" encoding="UTF-8" standalone="no"?>
<svg
   width="16"
   height="16"
   version="1.1"
   id="svg7"
   sodipodi:docname="savePassword.svg"
   inkscape:version="1.2.2 (b0a8486541, 2022-12-01)"
   xmlns:inkscape="http://www.inkscape.org/namespaces/inkscape"
   xmlns:sodipodi="http://sodipodi.sourceforge.net/DTD/sodipodi-0.dtd"
   xmlns="http://www.w3.org/2000/svg"
   xmlns:svg="http://www.w3.org/2000/svg">
  <defs
     id="defs11" />
  <sodipodi:namedview
     id="namedview9"
     pagecolor="#ffffff"
     bordercolor="#000000"
     borderopacity="0.25"
     inkscape:showpageshadow="2"
     inkscape:pageopacity="0.0"
     inkscape:pagecheckerboard="0"
     inkscape:deskcolor="#d1d1d1"
     showgrid="false"
     inkscape:zoom="32"
     inkscape:cx="3.625"
     inkscape:cy="8.796875"
     inkscape:window-width="1920"
     inkscape:window-height="1019"
     inkscape:window-x="1920"
     inkscape:window-y="31"
     inkscape:window-maximized="1"
     inkscape:current-layer="svg7" />
  <style
     type="text/css"
     id="style2">.icon-canvas-transparent{opacity:0;fill:#2d2d30;} .icon-vs-out{fill:#2d2d30;} .icon-vs-bg{fill:#c5c5c5;}</style>
  <path
     class="icon-vs-out"
     d="M16 4.28l-11.673 11.72h-4.327v-4.406l11.477-11.594h.308l4.215 4.237v.043z"
     id="outline"
     style="display: none;" />
  <path
     class="icon-canvas-transparent"
     d="M 16,15.98532 H 6.3157758e-7 V -0.01468047 H 16 Z"
     id="canvas"
     style="stroke-width:1" />
  <path
     class="icon-canvas-transparent"
     d="M 16,15.98532 H 6.3157758e-7 V -0.01468047 H 16 Z"
     id="path7518"
     style="stroke-width:1" />
  <g
     id="SVGRepo_bgCarrier"
     stroke-width="0"
     transform="translate(-28.71875,-17.78125)" />
  <g
     id="SVGRepo_tracerCarrier"
     stroke-linecap="round"
     stroke-linejoin="round"
     transform="translate(-28.71875,-17.78125)" />
  <g
     id="SVGRepo_bgCarrier-3"
     stroke-width="0"
     transform="matrix(0.68608597,0,0,0.68608597,-0.07316744,-0.53544482)" />
  <g
     id="SVGRepo_tracerCarrier-6"
     stroke-linecap="round"
     stroke-linejoin="round"
     transform="matrix(0.68608597,0,0,0.68608597,-0.07316744,-0.53544482)" />
  <g
     id="SVGRepo_bgCarrier-7"
     stroke-width="0"
     transform="matrix(0.06590297,0,0,0.06590297,-35.952739,-11.336787)" />
  <g
     id="SVGRepo_tracerCarrier-5"
     stroke-linecap="round"
     stroke-linejoin="round"
     transform="matrix(0.06590297,0,0,0.06590297,-35.952739,-11.336787)" />
  <g
     id="SVGRepo_iconCarrier-3"
     transform="matrix(0.06590297,0,0,0.06590297,-36.150492,-11.477233)"> <g
   id="g3268"
   style="stroke-width:1.00147;stroke-dasharray:none"> <g
   id="g3266"
   style="stroke-width:1.00147;stroke-dasharray:none"> <path
   d="M 765.93476,252.12031 H 573.9292 c -7.9529,0 -14.40027,6.4478 -14.40027,14.40027 v 57.60149 c 0,7.9529 6.44737,14.40027 14.40027,14.40027 h 192.00512 c 7.9529,0 14.40027,-6.44737 14.40027,-14.40027 v -57.60149 c 4.3e-4,-7.95247 -6.44693,-14.40027 -14.39983,-14.40027 z m -135.60384,48.96634 -7.20035,12.4708 -9.98457,-5.76511 v 11.52979 h -14.40027 v -11.52979 l -9.98587,5.76511 -7.20035,-12.4708 9.98544,-5.76511 -9.98457,-5.76511 7.20034,-12.4708 9.98544,5.76511 v -11.52979 h 14.40027 v 11.52979 l 9.98457,-5.76511 7.20035,12.4708 -9.98587,5.76511 z m 63.98676,0 -7.20035,12.4708 -9.98457,-5.76511 v 11.52979 h -14.40027 v -11.52979 l -9.98587,5.76511 -7.20035,-12.4708 9.98544,-5.76511 -9.98458,-5.76511 7.20035,-12.4708 9.98544,5.76511 v -11.52979 h 14.40027 v 11.52979 l 9.98457,-5.76511 7.20035,12.4708 -9.98587,5.76511 z m 63.98633,0 -7.20035,12.4708 -9.98458,-5.76511 v 11.52979 h -14.40026 v -11.52979 l -9.98544,5.76511 -7.20035,-12.4708 9.98587,-5.76511 -9.98544,-5.76511 7.20035,-12.4708 9.98544,5.76511 v -11.52979 h 14.40026 v 11.52979 l 9.98458,-5.76511 7.20035,12.4708 -9.98544,5.76511 z"
   id="path3264"
   style="fill:#c5c5c5;fill-opacity:1;stroke-width:0.431896;stroke-dasharray:none" />
 </g>
 </g>
 </g>
</svg>
